# xmcd CD database file
#
# Track frame offsets:
#	150
#	14999
#	34037
#	50196
#	64530
#	78642
#	92670
#	110306
#	130112
#	145708
#	157924
#	172392
#	188867
#	201874
#	215328
#	228176
#	243082
#	264197
#	278637
#	293453
#
# Disc length: 4206 seconds
#
# Revision: 0
# Processed by: cddbd v1.5.2PL0 Copyright (c) Steve Scherf et al.
# Submitted via: CDex 1.51
#
DISCID=17106c14
DTITLE=Forró da band - Volume IV
DYEAR=1900
DGENRE=Forró
TTITLE0=SÓ PRA VOCÊ - MASTRUZ COM LEITE
TTITLE1=TÔ PAQUERANDO - GAVIÕES DO FORRÓ
TTITLE2=CARTAS MARCADAS - CAVALO DE PAU
TTITLE3=O PICOLÉ - AMAZAN
TTITLE4=PERCURSO DE UMA LÁGRIMA - RITA DE CÁSSIA and REDONDO
TTITLE5=SEI QUE ERREI - SIRANO and SIRINO
TTITLE6=DESEJO DE MULHER - CACHORRA DA MULESTA
TTITLE7=PORTEIRO INGRATO - RAÍZES DO FORRÓ
TTITLE8=MULHER FORROZEIRA - JANAÍNA DOS TECLADOS
TTITLE9=MOTOR ZERADO - NOVINHO DA PARAÍBA
TTITLE10=EU NÃO SOU MÁQUINA - MEL COM TERRA
TTITLE11=VOU LARGAR DESSA MULHER - MAURICINHOS DO FORRÓ
TTITLE12=PENA DE NÓS DOIS - CAPITAL DO SOL
TTITLE13=CHEGANDO DE MANSINHO - FORRÓ CHEIA DE CHARME
TTITLE14=ORGULHO DO NORDESTE - GENILDO and GINALDO
TTITLE15=MEUS ''QUERÊ'' - FORROZZÃO KAÇA KABAÇO
TTITLE16=O AMOR DOMINA - ANJINHO DOS TECLADOS
TTITLE17=XENGO, XENGO DO PARÁ - PINDUCA
TTITLE18=VIAGRA SOB MEDIDA - CATUABA COM AMENDOIM
TTITLE19=POUT-POURRI: LIGAÇÃO ERRADA - ESTOU VOLTANDO - SERPENTE - KLÊNIO ROBSON
EXTD=
EXTT0=
EXTT1=
EXTT2=
EXTT3=
EXTT4=
EXTT5=
EXTT6=
EXTT7=
EXTT8=
EXTT9=
EXTT10=
EXTT11=
EXTT12=
EXTT13=
EXTT14=
EXTT15=
EXTT16=
EXTT17=
EXTT18=
EXTT19=
PLAYORDER=
